# xmcd
#
# Track frame offsets: 
#        150
#        24925
#        48000
#        68232
#        89104
#        108588
#        135194
#        156331
#        175580
#        201323
#
# Disc length: 2875 seconds
#
# Revision: 1
# Processed by: cddbd v1.5.2PL0 Copyright (c) Steve Scherf et al.
# Submitted via: ExactAudioCopyFreeDBPlugin 1.0
#
DISCID=7f0b390a
DTITLE=มาลีฮวนน่า ชุดที่ 8 - ปรายแสด
DYEAR=2006
DGENRE=Country
TTITLE0=กระท่อมกัญชา
TTITLE1=บัวทอง
TTITLE2=เพียงลมพัดผ่าน
TTITLE3=ยิ้มให้กับฝัน
TTITLE4=ช่วยจันทร์ (ราหูอมจันทร์)
TTITLE5=ถนนชีวิต
TTITLE6=เพ้อรัก
TTITLE7=แดดสุดท้าย
TTITLE8=นกบินลัดฟ้า
TTITLE9=ในฝัน
EXTD=
EXTT0=
EXTT1=
EXTT2=
EXTT3=
EXTT4=
EXTT5=
EXTT6=
EXTT7=
EXTT8=
EXTT9=
PLAYORDER=
